<svg width="303" height="46" viewBox="0 0 303 46" fill="none" xmlns="http://www.w3.org/2000/svg">
<rect width="303" height="46" rx="23" fill="url(#paint0_linear_232_785)"/>
<path d="M69.18 19.5V17.46H72.36V15.32H74.52V23.94H72.36V19.5H69.18ZM65.54 20.56C64.98 21.44 64.2733 22.16 63.42 22.72C62.58 23.2667 61.64 23.6 60.6 23.72V21.66C61.4267 21.5133 62.1533 21.1533 62.78 20.58C63.4067 20.0067 63.8933 19.2733 64.24 18.38C64.5867 17.4733 64.7667 16.4867 64.78 15.42L66.96 15.56C66.96 16.72 66.78 17.7933 66.42 18.78L70.68 21.82L69.46 23.4L65.54 20.56ZM68.18 24.32C70.1267 24.32 71.6867 24.58 72.86 25.1C74.0467 25.62 74.64 26.4333 74.64 27.54C74.64 28.66 74.0533 29.48 72.88 30C71.7067 30.5067 70.14 30.76 68.18 30.76C66.2333 30.76 64.6733 30.5067 63.5 30C62.3267 29.48 61.74 28.66 61.74 27.54C61.74 26.4333 62.3267 25.62 63.5 25.1C64.6733 24.58 66.2333 24.32 68.18 24.32ZM68.18 28.94C69.4067 28.94 70.4 28.82 71.16 28.58C71.9333 28.34 72.32 27.9933 72.32 27.54C72.32 27.0867 71.9333 26.74 71.16 26.5C70.4 26.26 69.4067 26.14 68.18 26.14C66.9667 26.14 65.9733 26.26 65.2 26.5C64.44 26.74 64.06 27.0867 64.06 27.54C64.06 27.9933 64.44 28.34 65.2 28.58C65.9733 28.82 66.9667 28.94 68.18 28.94ZM90.2579 30.68H88.0979V15.32H90.2579V30.68ZM82.9179 17.88C82.8779 19.64 82.7379 21.1333 82.4979 22.36L87.0579 28.4L85.3579 29.74L81.7979 24.9C81.2512 26.4067 80.5446 27.5867 79.6779 28.44C78.8112 29.28 77.8312 29.7467 76.7379 29.84V27.56C77.5246 27.4267 78.2112 26.94 78.7979 26.1C79.3979 25.2467 79.8646 24.1133 80.1979 22.7C80.5312 21.2867 80.7112 19.68 80.7379 17.88H77.0979V15.8H86.4379V17.88H82.9179ZM109.631 23.5V30.68H107.471V15.32H109.631V21.3H111.551V23.5H109.631ZM101.031 15.6C102.404 15.6 103.484 16.2067 104.271 17.42C105.058 18.62 105.451 20.42 105.451 22.82C105.451 25.22 105.058 27.0267 104.271 28.24C103.484 29.44 102.404 30.04 101.031 30.04C99.6709 30.04 98.5909 29.44 97.7909 28.24C97.0042 27.0267 96.6109 25.22 96.6109 22.82C96.6109 20.42 97.0042 18.62 97.7909 17.42C98.5909 16.2067 99.6709 15.6 101.031 15.6ZM101.031 27.94C101.724 27.94 102.271 27.5333 102.671 26.72C103.084 25.8933 103.291 24.5933 103.291 22.82C103.291 21.0467 103.084 19.7533 102.671 18.94C102.271 18.1133 101.724 17.7 101.031 17.7C100.338 17.7 99.7842 18.1133 99.3709 18.94C98.9575 19.7533 98.7509 21.0467 98.7509 22.82C98.7509 24.58 98.9575 25.8733 99.3709 26.7C99.7842 27.5267 100.338 27.94 101.031 27.94ZM125.469 23.5V30.68H123.309V15.32H125.469V21.3H127.389V23.5H125.469ZM120.769 15.8V20.22C120.769 22.1933 120.415 23.9067 119.709 25.36C119.015 26.8 118.049 27.9 116.809 28.66C115.569 29.42 114.149 29.8067 112.549 29.82V27.68C113.962 27.68 115.155 27.3133 116.129 26.58C117.115 25.8333 117.809 24.7467 118.209 23.32H112.549V21.24H118.569C118.582 21.0533 118.589 20.76 118.589 20.36V17.86H112.549V15.8H120.769ZM139.567 30.68V15.32H141.747V30.68H139.567ZM132.947 15.6C134.32 15.6 135.407 16.2067 136.207 17.42C137.007 18.62 137.407 20.42 137.407 22.82C137.407 25.22 137.007 27.0267 136.207 28.24C135.407 29.44 134.32 30.04 132.947 30.04C131.56 30.04 130.46 29.44 129.647 28.24C128.847 27.0267 128.447 25.22 128.447 22.82C128.447 20.42 128.847 18.62 129.647 17.42C130.46 16.2067 131.56 15.6 132.947 15.6ZM132.947 17.7C132.227 17.7 131.653 18.1133 131.227 18.94C130.8 19.7667 130.587 21.06 130.587 22.82C130.587 24.58 130.8 25.8733 131.227 26.7C131.653 27.5267 132.227 27.94 132.947 27.94C133.653 27.94 134.213 27.5267 134.627 26.7C135.053 25.8733 135.267 24.58 135.267 22.82C135.267 21.06 135.053 19.7667 134.627 18.94C134.213 18.1133 133.653 17.7 132.947 17.7ZM144.625 25.18V15.74H146.765V18.4H155.345V15.74H157.485V25.18H144.625ZM155.345 20.4H146.765V23.14H155.345V20.4ZM158.385 30.02H143.725V27.9H158.385V30.02ZM173.802 30.68H171.762V15.32H173.802V30.68ZM170.202 15.4V30.42H168.182V23.68H166.602C166.536 25.88 166.216 27.4933 165.642 28.52C165.069 29.5333 164.236 30.04 163.142 30.04C161.996 30.04 161.129 29.46 160.542 28.3C159.969 27.14 159.682 25.3133 159.682 22.82C159.682 20.3267 159.969 18.5 160.542 17.34C161.129 16.18 161.996 15.6 163.142 15.6C164.196 15.6 165.009 16.08 165.582 17.04C166.156 17.9867 166.496 19.4733 166.602 21.5H168.182V15.4H170.202ZM163.142 27.98C163.649 27.98 164.016 27.5667 164.242 26.74C164.482 25.9 164.602 24.5933 164.602 22.82C164.602 21.0467 164.482 19.7467 164.242 18.92C164.016 18.08 163.649 17.66 163.142 17.66C162.649 17.66 162.282 18.08 162.042 18.92C161.816 19.76 161.702 21.06 161.702 22.82C161.702 24.58 161.816 25.88 162.042 26.72C162.282 27.56 162.649 27.98 163.142 27.98ZM186.235 21.36C185.529 22.1067 184.622 22.7 183.515 23.14C182.409 23.58 181.182 23.8333 179.835 23.9V21.82C181.182 21.7267 182.349 21.3933 183.335 20.82C184.335 20.2333 185.015 19.4933 185.375 18.6H180.175V16.52H185.555V14.94H187.775V16.52H193.195V18.6H187.835C187.769 18.92 187.655 19.2733 187.495 19.66L193.615 21.86L192.935 23.82L186.235 21.36ZM187.775 27.24V31.04H185.595V27.24H179.355V25.14H194.015V27.24H187.775ZM208.613 23.5V30.68H206.453V15.32H208.613V21.3H210.533V23.5H208.613ZM203.753 15.8V19.68C203.753 21.7333 203.427 23.5267 202.773 25.06C202.133 26.58 201.207 27.7533 199.993 28.58C198.78 29.4067 197.347 29.82 195.693 29.82V27.66C197.56 27.6467 199 26.94 200.013 25.54C201.04 24.1267 201.553 22.18 201.553 19.7V17.88H195.693V15.8H203.753ZM220.831 17.48V19.58H211.371V17.48H214.991V15.26H217.211V17.48H220.831ZM224.451 23.5V30.68H222.291V15.32H224.451V21.3H226.371V23.5H224.451ZM216.091 20.56C216.905 20.56 217.625 20.7667 218.251 21.18C218.878 21.58 219.365 22.14 219.711 22.86C220.058 23.58 220.231 24.3933 220.231 25.3C220.231 26.2067 220.058 27.02 219.711 27.74C219.365 28.46 218.878 29.02 218.251 29.42C217.625 29.82 216.905 30.02 216.091 30.02C215.278 30.02 214.558 29.82 213.931 29.42C213.305 29.02 212.818 28.46 212.471 27.74C212.125 27.02 211.951 26.2067 211.951 25.3C211.951 24.3933 212.125 23.58 212.471 22.86C212.818 22.14 213.305 21.58 213.931 21.18C214.558 20.7667 215.278 20.56 216.091 20.56ZM216.091 28.06C216.691 28.06 217.185 27.8067 217.571 27.3C217.958 26.7933 218.151 26.1267 218.151 25.3C218.151 24.46 217.958 23.7933 217.571 23.3C217.198 22.7933 216.705 22.54 216.091 22.54C215.478 22.54 214.978 22.7933 214.591 23.3C214.218 23.7933 214.031 24.46 214.031 25.3C214.031 26.1267 214.225 26.7933 214.611 27.3C214.998 27.8067 215.491 28.06 216.091 28.06ZM238.549 30.68V15.32H240.709V30.68H238.549ZM235.749 19.68C235.749 21.7333 235.409 23.5267 234.729 25.06C234.062 26.58 233.109 27.7533 231.869 28.58C230.629 29.4067 229.182 29.82 227.529 29.82V27.66C228.782 27.66 229.856 27.34 230.749 26.7C231.656 26.0467 232.342 25.1267 232.809 23.94C233.289 22.74 233.529 21.3267 233.529 19.7V17.88H227.529V15.8H235.749V19.68Z" fill="#08110D"/>
<defs>
<linearGradient id="paint0_linear_232_785" x1="151.5" y1="0" x2="151.5" y2="46" gradientUnits="userSpaceOnUse">
<stop stop-color="#00FFA3"/>
<stop offset="1" stop-color="#12CB87"/>
</linearGradient>
</defs>
</svg>
