<svg width="402" height="80" viewBox="0 0 402 80" fill="none" xmlns="http://www.w3.org/2000/svg">
<rect width="402" height="80" fill="url(#paint0_linear_451_1944)"/>
<path d="M47.9272 35.9609V30.2292L40.2 22.2537L32.4727 30.2292V37.9863H48.8959C49.5235 37.9863 50.0322 38.491 50.0322 39.1135C50.0322 39.7361 49.5235 40.2407 48.8959 40.2407H31.3363C30.7087 40.2407 30.2 39.7361 30.2 39.1135V29.7753C30.2 29.4841 30.3135 29.2041 30.5169 28.9941L39.3805 19.8461L39.4649 19.7677C39.6692 19.5957 39.9295 19.5 40.2 19.5C40.5091 19.5 40.8051 19.625 41.0194 19.8461L49.883 28.9941C50.0864 29.2041 50.2 29.4841 50.2 29.7753V35.9609C50.1999 36.5833 49.6911 37.0881 49.0636 37.0881C48.436 37.0881 47.9273 36.5833 47.9272 35.9609Z" fill="#2F3332"/>
<g filter="url(#filter0_d_451_1944)">
<path d="M35.7473 50.0467V49.2867H39.694V48.3H40.6673V49.2867H44.654V50.0467H35.7473ZM45.054 55.0467H35.3473V54.2867H39.7207V53.4467C38.6095 53.42 37.734 53.2911 37.094 53.06C36.4629 52.82 36.1473 52.4733 36.1473 52.02C36.1473 51.54 36.5073 51.1844 37.2273 50.9533C37.9562 50.7133 38.9473 50.5933 40.2007 50.5933C41.454 50.5933 42.4407 50.7133 43.1607 50.9533C43.8807 51.1844 44.2407 51.54 44.2407 52.02C44.2407 52.4733 43.9251 52.82 43.294 53.06C42.6629 53.2911 41.7918 53.42 40.6807 53.4467V54.2867H45.054V55.0467ZM37.1073 52.02C37.1073 52.26 37.3918 52.4422 37.9607 52.5667C38.5295 52.6911 39.2762 52.7533 40.2007 52.7533C41.1251 52.7533 41.8673 52.6911 42.4273 52.5667C42.9962 52.4422 43.2807 52.26 43.2807 52.02C43.2807 51.78 42.9962 51.5978 42.4273 51.4733C41.8584 51.3489 41.1162 51.2867 40.2007 51.2867C39.2851 51.2867 38.5384 51.3489 37.9607 51.4733C37.3918 51.5978 37.1073 51.78 37.1073 52.02ZM44.3473 55.9267V58.8067H36.054V55.9267H44.3473ZM43.4007 58.06V56.66H37.0007V58.06H43.4007Z" fill="#DDEAE4" fill-opacity="0.5" shape-rendering="crispEdges"/>
</g>
<g clip-path="url(#clip0_451_1944)">
<g filter="url(#filter1_f_451_1944)">
<path d="M125.265 33.3982H124.338L124.01 33.0816C124.743 32.2304 125.279 31.2278 125.579 30.1454C125.879 29.0631 125.936 27.9279 125.746 26.821C125.195 23.5617 122.473 20.9589 119.189 20.5603C118.034 20.4143 116.861 20.5342 115.76 20.911C114.658 21.2877 113.658 21.9112 112.835 22.7338C112.012 23.5563 111.388 24.5562 111.011 25.6568C110.634 26.7574 110.514 27.9296 110.66 29.0837C111.059 32.3664 113.663 35.0864 116.925 35.6374C118.032 35.8274 119.168 35.7704 120.251 35.4704C121.334 35.1705 122.337 34.635 123.189 33.9023L123.506 34.2306V35.1568L128.491 40.1395C128.972 40.6202 129.758 40.6202 130.239 40.1395C130.72 39.6588 130.72 38.8733 130.239 38.3926L125.265 33.3982ZM118.227 33.3982C115.306 33.3982 112.948 31.0416 112.948 28.1223C112.948 25.203 115.306 22.8465 118.227 22.8465C121.148 22.8465 123.506 25.203 123.506 28.1223C123.506 31.0416 121.148 33.3982 118.227 33.3982Z" fill="#E1FEF4" fill-opacity="0.8"/>
</g>
<path d="M125.265 33.3982H124.338L124.01 33.0816C124.743 32.2304 125.279 31.2278 125.579 30.1454C125.879 29.0631 125.936 27.9279 125.746 26.821C125.195 23.5617 122.473 20.9589 119.189 20.5603C118.034 20.4143 116.861 20.5342 115.76 20.911C114.658 21.2877 113.658 21.9112 112.835 22.7338C112.012 23.5563 111.388 24.5562 111.011 25.6568C110.634 26.7574 110.514 27.9296 110.66 29.0837C111.059 32.3664 113.663 35.0864 116.925 35.6374C118.032 35.8274 119.168 35.7704 120.251 35.4704C121.334 35.1705 122.337 34.635 123.189 33.9023L123.506 34.2306V35.1568L128.491 40.1395C128.972 40.6202 129.758 40.6202 130.239 40.1395C130.72 39.6588 130.72 38.8733 130.239 38.3926L125.265 33.3982ZM118.227 33.3982C115.306 33.3982 112.948 31.0416 112.948 28.1223C112.948 25.203 115.306 22.8465 118.227 22.8465C121.148 22.8465 123.506 25.203 123.506 28.1223C123.506 31.0416 121.148 33.3982 118.227 33.3982Z" fill="#E1FEF4" fill-opacity="0.8"/>
</g>
<g filter="url(#filter2_d_451_1944)">
<path d="M119.228 52.02V54.7133H118.268V48.7133H119.228V51.0467H120.641V52.02H119.228ZM117.495 53.8333C117.175 53.9844 116.726 54.1044 116.148 54.1933C115.57 54.2733 114.917 54.3133 114.188 54.3133H110.841V48.9933H116.775V49.8067H111.801V51.2467H116.588V52.0333H111.801V53.4867H114.255C114.966 53.4867 115.601 53.4467 116.161 53.3667C116.73 53.2867 117.175 53.1711 117.495 53.02V53.8333ZM119.228 55.3133V58.7933H111.161V55.3133H119.228ZM118.268 57.9533V56.1533H112.135V57.9533H118.268ZM130.333 55.0333H129.413V52.0467H127.587V54.9267H126.68V48.7667H127.587V51.1H129.413V48.7133H130.333V55.0333ZM123.6 52.3267C123.093 53.6422 122.24 54.4333 121.04 54.7V53.7533C122.489 53.3444 123.213 51.7044 123.213 48.8333L124.147 48.86C124.147 49.8111 124.071 50.6378 123.92 51.34L126.24 53.9533L125.587 54.58L123.6 52.3267ZM130.333 55.6333V58.9267H129.373V56.5133H121.827V55.6333H130.333Z" fill="#F5FCF8"/>
</g>
<g filter="url(#filter3_d_451_1944)">
<rect x="171" y="10" width="60" height="60" rx="30" fill="url(#paint1_linear_451_1944)" shape-rendering="crispEdges"/>
<g filter="url(#filter4_f_451_1944)">
<path d="M191 40H211M201 30V50" stroke="#E1FEF4" stroke-opacity="0.8" stroke-width="3" stroke-linecap="round"/>
</g>
<path d="M191 40H211M201 30V50" stroke="#E1FEF4" stroke-opacity="0.8" stroke-width="3" stroke-linecap="round"/>
</g>
<g clip-path="url(#clip1_451_1944)">
<path d="M281.398 23.6206C282.071 23.6206 282.718 23.8877 283.194 24.3638C283.67 24.8398 283.937 25.4856 283.937 26.1587C283.937 26.832 283.67 27.4785 283.194 27.9546C282.718 28.4307 282.071 28.6978 281.398 28.6978C280.725 28.6977 280.079 28.4305 279.603 27.9546C279.127 27.4785 278.86 26.832 278.86 26.1587C278.86 25.4855 279.127 24.8398 279.603 24.3638C280.079 23.8878 280.725 23.6207 281.398 23.6206ZM281.398 25.1519C281.131 25.1519 280.875 25.258 280.686 25.4468C280.498 25.6355 280.391 25.8918 280.391 26.1587C280.391 26.4255 280.498 26.6818 280.686 26.8706C280.875 27.0593 281.131 27.1654 281.398 27.1655C281.665 27.1655 281.921 27.0594 282.11 26.8706C282.299 26.6818 282.405 26.4257 282.405 26.1587C282.405 25.8918 282.299 25.6355 282.11 25.4468C281.921 25.2582 281.665 25.1519 281.398 25.1519Z" fill="#2F3332" stroke="#2F3332" stroke-width="0.35"/>
<path d="M281.399 19.9004C284.559 19.9005 287.066 22.6192 287.066 25.9062C287.066 26.6008 286.922 27.3856 286.68 28.1934C286.949 28.3646 287.197 28.5679 287.417 28.8008C287.807 29.2134 288.103 29.7064 288.282 30.2451L289.858 34.9727C290.054 35.5584 290.107 36.1826 290.014 36.793C289.92 37.4032 289.683 37.9827 289.322 38.4834C288.961 38.984 288.486 39.3928 287.937 39.6738C287.387 39.9547 286.778 40.1009 286.161 40.1006H276.636C276.019 40.1006 275.41 39.954 274.86 39.6729C274.311 39.3916 273.836 38.9831 273.475 38.4824C273.114 37.9818 272.877 37.402 272.784 36.792C272.691 36.182 272.744 35.558 272.94 34.9727L274.516 30.2451C274.698 29.6969 275.001 29.1962 275.401 28.7793C275.616 28.5557 275.857 28.3603 276.116 28.1943C275.873 27.3865 275.731 26.601 275.731 25.9062C275.731 22.6191 278.238 19.9004 281.399 19.9004ZM286.161 39.75L286.346 39.7451C286.347 39.745 286.349 39.7442 286.351 39.7441C286.288 39.7475 286.224 39.75 286.161 39.75ZM287.399 39.5273C287.462 39.5038 287.525 39.4793 287.587 39.4521L287.59 39.4502C287.527 39.4778 287.463 39.5034 287.399 39.5273ZM274.392 38.9473C274.424 38.9735 274.454 39.0013 274.487 39.0264C274.598 39.1108 274.714 39.1887 274.835 39.2598C274.895 39.2953 274.957 39.3293 275.02 39.3613C275.079 39.3916 275.139 39.4195 275.199 39.4463C275.139 39.4195 275.079 39.3906 275.02 39.3604C274.795 39.2454 274.586 39.1058 274.392 38.9473ZM289.039 38.2783C288.959 38.3896 288.871 38.495 288.779 38.5957C288.824 38.5465 288.869 38.497 288.911 38.4453L289.039 38.2793V38.2783ZM273.759 38.2783C273.774 38.299 273.79 38.3185 273.806 38.3389C273.79 38.3183 273.774 38.2983 273.759 38.2773C273.752 38.2684 273.747 38.259 273.74 38.25C273.747 38.2592 273.752 38.2692 273.759 38.2783ZM285.979 30.0244C285.737 30.5467 285.467 31.0572 285.176 31.5352C284.636 32.422 284.02 33.2207 283.388 33.8018C282.767 34.3724 282.078 34.7821 281.399 34.7822C280.719 34.7822 280.03 34.3724 279.409 33.8018C278.777 33.2207 278.162 32.422 277.622 31.5352C277.331 31.0574 277.061 30.5475 276.818 30.0254C276.798 30.0445 276.777 30.0621 276.758 30.082C276.551 30.2978 276.394 30.5581 276.3 30.8418L274.725 35.5684C274.624 35.8709 274.596 36.1936 274.645 36.5088C274.693 36.824 274.815 37.1241 275.002 37.3828C275.189 37.6414 275.434 37.8528 275.718 37.998C276.002 38.1432 276.317 38.2188 276.636 38.2188H286.163C286.482 38.2187 286.797 38.1424 287.081 37.9971C287.365 37.8517 287.611 37.6405 287.797 37.3818C287.983 37.1231 288.105 36.823 288.153 36.5078C288.201 36.1926 288.174 35.8699 288.073 35.5674L286.499 30.8408L286.418 30.6367C286.326 30.4376 286.203 30.2537 286.052 30.0938C286.029 30.0693 286.003 30.0476 285.979 30.0244ZM287.665 38.0273C287.714 37.9874 287.762 37.947 287.807 37.9033L287.831 37.8789C287.778 37.9313 287.722 37.9801 287.665 38.0273ZM274.895 37.8037C274.914 37.8253 274.936 37.8454 274.956 37.8662C274.903 37.8124 274.851 37.7571 274.803 37.6982L274.895 37.8037ZM273.438 37.7373C273.446 37.7542 273.456 37.7703 273.464 37.7871C273.446 37.751 273.429 37.7144 273.412 37.6777C273.421 37.6974 273.428 37.7178 273.438 37.7373ZM273.13 36.7393C273.151 36.8779 273.181 37.0149 273.218 37.1494H273.219C273.182 37.0149 273.152 36.878 273.131 36.7393H273.13ZM289.668 36.7393C289.648 36.8736 289.619 37.0063 289.583 37.1367C289.6 37.074 289.616 37.011 289.63 36.9473C289.645 36.8787 289.657 36.8097 289.668 36.7402V36.7393ZM273.272 35.083C273.238 35.1828 273.21 35.2838 273.186 35.3857L273.273 35.083L274.686 30.8418L273.272 35.083ZM281.399 21.7822C279.341 21.7822 277.612 23.5936 277.612 25.9062C277.612 27.1108 278.27 28.8823 279.124 30.377C279.547 31.1175 280.007 31.7682 280.435 32.2285C280.649 32.4589 280.847 32.6337 281.022 32.748C281.201 32.8655 281.326 32.9004 281.399 32.9004C281.472 32.9003 281.596 32.8654 281.775 32.748C281.95 32.6337 282.148 32.459 282.362 32.2285C282.79 31.768 283.25 31.1168 283.673 30.376C284.527 28.8812 285.185 27.1101 285.185 25.9062C285.185 23.5937 283.456 21.7824 281.399 21.7822ZM274.221 38.7988C274.254 38.8296 274.287 38.8601 274.321 38.8896C274.287 38.8602 274.254 38.8296 274.221 38.7988Z" fill="#2F3332"/>
</g>
<g filter="url(#filter5_d_451_1944)">
<path d="M280.375 58.9533H279.428V56.02H277.668L277.735 55.0733H279.428V52.3133H277.735L277.668 51.3533H279.428V48.7133H280.375V58.9533ZM274.535 48.98C275.406 48.98 276.095 49.38 276.601 50.18C277.117 50.9711 277.375 52.1489 277.375 53.7133C277.375 55.2778 277.117 56.46 276.601 57.26C276.095 58.0511 275.406 58.4467 274.535 58.4467C273.655 58.4467 272.957 58.0511 272.441 57.26C271.926 56.46 271.668 55.2778 271.668 53.7133C271.668 52.1489 271.926 50.9711 272.441 50.18C272.957 49.38 273.655 48.98 274.535 48.98ZM274.535 57.5267C275.104 57.5267 275.557 57.2111 275.895 56.58C276.241 55.9489 276.415 54.9933 276.415 53.7133C276.415 52.4422 276.241 51.4911 275.895 50.86C275.557 50.22 275.104 49.9 274.535 49.9C273.957 49.9 273.495 50.22 273.148 50.86C272.801 51.4911 272.628 52.4422 272.628 53.7133C272.628 54.9933 272.797 55.9489 273.135 56.58C273.481 57.2111 273.948 57.5267 274.535 57.5267ZM281.667 50.46V49.66H283.827V48.5667H284.773V49.66H286.84V50.46H281.667ZM287.613 54.7V48.7667H288.507V51.18H290.227V48.7133H291.133V55.06H290.227V52.0867H288.507V54.7H287.613ZM286.587 52.9533C286.587 53.5222 286.369 53.98 285.933 54.3267C285.507 54.6644 284.969 54.8333 284.32 54.8333C283.662 54.8333 283.12 54.6644 282.693 54.3267C282.267 53.9889 282.053 53.5311 282.053 52.9533C282.053 52.3844 282.267 51.9311 282.693 51.5933C283.12 51.2467 283.662 51.0733 284.32 51.0733C284.969 51.0733 285.507 51.2467 285.933 51.5933C286.369 51.9311 286.587 52.3844 286.587 52.9533ZM282.933 52.9533C282.933 53.2733 283.058 53.54 283.307 53.7533C283.564 53.9667 283.902 54.0733 284.32 54.0733C284.738 54.0733 285.071 53.9667 285.32 53.7533C285.578 53.54 285.707 53.2733 285.707 52.9533C285.707 52.6333 285.578 52.3667 285.32 52.1533C285.071 51.94 284.738 51.8333 284.32 51.8333C283.902 51.8333 283.564 51.94 283.307 52.1533C283.058 52.3667 282.933 52.6333 282.933 52.9533ZM286.96 55.3C288.24 55.3 289.275 55.4467 290.067 55.74C290.858 56.0333 291.253 56.4911 291.253 57.1133C291.253 57.7444 290.858 58.2067 290.067 58.5C289.284 58.7844 288.249 58.9267 286.96 58.9267C285.671 58.9267 284.631 58.7844 283.84 58.5C283.058 58.2067 282.667 57.7444 282.667 57.1133C282.667 56.4911 283.062 56.0333 283.853 55.74C284.644 55.4467 285.68 55.3 286.96 55.3ZM286.96 58.1267C287.92 58.1267 288.707 58.0422 289.32 57.8733C289.933 57.7044 290.24 57.4511 290.24 57.1133C290.24 56.7844 289.929 56.5356 289.307 56.3667C288.693 56.1978 287.911 56.1133 286.96 56.1133C286 56.1133 285.209 56.1978 284.587 56.3667C283.973 56.5356 283.667 56.7844 283.667 57.1133C283.667 57.4511 283.973 57.7044 284.587 57.8733C285.209 58.0422 286 58.1267 286.96 58.1267Z" fill="#DDEAE4" fill-opacity="0.5" shape-rendering="crispEdges"/>
</g>
<path d="M369.3 39C368.825 29.667 354.775 29.667 354.3 39M364.8 26C364.8 26.7956 364.484 27.5587 363.921 28.1213C363.359 28.6839 362.596 29 361.8 29C361.004 29 360.241 28.6839 359.679 28.1213C359.116 27.5587 358.8 26.7956 358.8 26C358.8 25.2044 359.116 24.4413 359.679 23.8787C360.241 23.3161 361.004 23 361.8 23C362.596 23 363.359 23.3161 363.921 23.8787C364.484 24.4413 364.8 25.2044 364.8 26Z" stroke="#2F3332" stroke-width="2" stroke-linecap="round" stroke-linejoin="round"/>
<g filter="url(#filter6_d_451_1944)">
<path d="M360.428 53.9133V58.9533H359.468V48.7133H360.428V52.9533H361.841V53.9133H360.428ZM357.521 49.1133V58.3133H352.161V49.1133H357.521ZM356.561 57.38V50.0467H353.121V57.38H356.561ZM370.293 58.9533V48.7133H371.267V58.9533H370.293ZM365.6 48.98C366.489 48.98 367.196 49.38 367.72 50.18C368.253 50.98 368.52 52.1578 368.52 53.7133C368.52 55.2689 368.253 56.4467 367.72 57.2467C367.196 58.0467 366.489 58.4467 365.6 58.4467C364.711 58.4467 364 58.0467 363.467 57.2467C362.942 56.4467 362.68 55.2689 362.68 53.7133C362.68 52.1578 362.942 50.98 363.467 50.18C364 49.38 364.711 48.98 365.6 48.98ZM365.6 49.9C365.004 49.9 364.529 50.22 364.173 50.86C363.818 51.4911 363.64 52.4422 363.64 53.7133C363.64 54.9933 363.818 55.9489 364.173 56.58C364.529 57.2111 365.004 57.5267 365.6 57.5267C366.178 57.5267 366.649 57.2111 367.013 56.58C367.378 55.94 367.56 54.9844 367.56 53.7133C367.56 52.4511 367.378 51.5 367.013 50.86C366.649 50.22 366.178 49.9 365.6 49.9Z" fill="#DDEAE4" fill-opacity="0.5" shape-rendering="crispEdges"/>
</g>
<defs>
<filter id="filter0_d_451_1944" x="31.3474" y="48.3" width="17.7065" height="18.5066" filterUnits="userSpaceOnUse" color-interpolation-filters="sRGB">
<feFlood flood-opacity="0" result="BackgroundImageFix"/>
<feColorMatrix in="SourceAlpha" type="matrix" values="0 0 0 0 0 0 0 0 0 0 0 0 0 0 0 0 0 0 127 0" result="hardAlpha"/>
<feOffset dy="4"/>
<feGaussianBlur stdDeviation="2"/>
<feComposite in2="hardAlpha" operator="out"/>
<feColorMatrix type="matrix" values="0 0 0 0 0 0 0 0 0 0 0 0 0 0 0 0 0 0 0.25 0"/>
<feBlend mode="normal" in2="BackgroundImageFix" result="effect1_dropShadow_451_1944"/>
<feBlend mode="normal" in="SourceGraphic" in2="effect1_dropShadow_451_1944" result="shape"/>
</filter>
<filter id="filter1_f_451_1944" x="107.6" y="17.5" width="26" height="26" filterUnits="userSpaceOnUse" color-interpolation-filters="sRGB">
<feFlood flood-opacity="0" result="BackgroundImageFix"/>
<feBlend mode="normal" in="SourceGraphic" in2="BackgroundImageFix" result="shape"/>
<feGaussianBlur stdDeviation="1.5" result="effect1_foregroundBlur_451_1944"/>
</filter>
<filter id="filter2_d_451_1944" x="106.841" y="48.7134" width="27.4919" height="18.2133" filterUnits="userSpaceOnUse" color-interpolation-filters="sRGB">
<feFlood flood-opacity="0" result="BackgroundImageFix"/>
<feColorMatrix in="SourceAlpha" type="matrix" values="0 0 0 0 0 0 0 0 0 0 0 0 0 0 0 0 0 0 127 0" result="hardAlpha"/>
<feOffset dy="4"/>
<feGaussianBlur stdDeviation="2"/>
<feComposite in2="hardAlpha" operator="out"/>
<feColorMatrix type="matrix" values="0 0 0 0 0 0 0 0 0 0 0 0 0 0 0 0 0 0 0.25 0"/>
<feBlend mode="normal" in2="BackgroundImageFix" result="effect1_dropShadow_451_1944"/>
<feBlend mode="normal" in="SourceGraphic" in2="effect1_dropShadow_451_1944" result="shape"/>
</filter>
<filter id="filter3_d_451_1944" x="165" y="4" width="72" height="72" filterUnits="userSpaceOnUse" color-interpolation-filters="sRGB">
<feFlood flood-opacity="0" result="BackgroundImageFix"/>
<feColorMatrix in="SourceAlpha" type="matrix" values="0 0 0 0 0 0 0 0 0 0 0 0 0 0 0 0 0 0 127 0" result="hardAlpha"/>
<feOffset/>
<feGaussianBlur stdDeviation="3"/>
<feComposite in2="hardAlpha" operator="out"/>
<feColorMatrix type="matrix" values="0 0 0 0 0 0 0 0 0 1 0 0 0 0 0.639216 0 0 0 0.25 0"/>
<feBlend mode="normal" in2="BackgroundImageFix" result="effect1_dropShadow_451_1944"/>
<feBlend mode="normal" in="SourceGraphic" in2="effect1_dropShadow_451_1944" result="shape"/>
</filter>
<filter id="filter4_f_451_1944" x="186.5" y="25.5" width="29" height="29" filterUnits="userSpaceOnUse" color-interpolation-filters="sRGB">
<feFlood flood-opacity="0" result="BackgroundImageFix"/>
<feBlend mode="normal" in="SourceGraphic" in2="BackgroundImageFix" result="shape"/>
<feGaussianBlur stdDeviation="1.5" result="effect1_foregroundBlur_451_1944"/>
</filter>
<filter id="filter5_d_451_1944" x="267.668" y="48.5667" width="27.5852" height="18.3867" filterUnits="userSpaceOnUse" color-interpolation-filters="sRGB">
<feFlood flood-opacity="0" result="BackgroundImageFix"/>
<feColorMatrix in="SourceAlpha" type="matrix" values="0 0 0 0 0 0 0 0 0 0 0 0 0 0 0 0 0 0 127 0" result="hardAlpha"/>
<feOffset dy="4"/>
<feGaussianBlur stdDeviation="2"/>
<feComposite in2="hardAlpha" operator="out"/>
<feColorMatrix type="matrix" values="0 0 0 0 0 0 0 0 0 0 0 0 0 0 0 0 0 0 0.25 0"/>
<feBlend mode="normal" in2="BackgroundImageFix" result="effect1_dropShadow_451_1944"/>
<feBlend mode="normal" in="SourceGraphic" in2="effect1_dropShadow_451_1944" result="shape"/>
</filter>
<filter id="filter6_d_451_1944" x="348.161" y="48.7134" width="27.1052" height="18.24" filterUnits="userSpaceOnUse" color-interpolation-filters="sRGB">
<feFlood flood-opacity="0" result="BackgroundImageFix"/>
<feColorMatrix in="SourceAlpha" type="matrix" values="0 0 0 0 0 0 0 0 0 0 0 0 0 0 0 0 0 0 127 0" result="hardAlpha"/>
<feOffset dy="4"/>
<feGaussianBlur stdDeviation="2"/>
<feComposite in2="hardAlpha" operator="out"/>
<feColorMatrix type="matrix" values="0 0 0 0 0 0 0 0 0 0 0 0 0 0 0 0 0 0 0.25 0"/>
<feBlend mode="normal" in2="BackgroundImageFix" result="effect1_dropShadow_451_1944"/>
<feBlend mode="normal" in="SourceGraphic" in2="effect1_dropShadow_451_1944" result="shape"/>
</filter>
<linearGradient id="paint0_linear_451_1944" x1="201" y1="0" x2="201" y2="80" gradientUnits="userSpaceOnUse">
<stop stop-color="#081713" stop-opacity="0.95"/>
<stop offset="1" stop-color="#050C0A"/>
</linearGradient>
<linearGradient id="paint1_linear_451_1944" x1="201" y1="10" x2="201" y2="70" gradientUnits="userSpaceOnUse">
<stop stop-color="#00FFA3"/>
<stop offset="1" stop-color="#12CB87"/>
</linearGradient>
<clipPath id="clip0_451_1944">
<rect width="24" height="24" fill="white" transform="translate(108.6 18.5)"/>
</clipPath>
<clipPath id="clip1_451_1944">
<rect width="20" height="21" fill="white" transform="translate(271.4 19.5)"/>
</clipPath>
</defs>
</svg>
